<svg width="852" height="92" viewBox="0 0 852 92" fill="none" xmlns="http://www.w3.org/2000/svg">
<path d="M64.125 39.745C80.955 39.745 89.37 48.16 89.37 64.99C89.37 81.91 80.955 90.37 64.125 90.37H1.485L7.425 78.49H61.155C64.845 78.49 67.995 77.185 70.605 74.575C73.215 71.965 74.52 68.815 74.52 65.125C74.52 61.345 73.215 58.15 70.605 55.54C67.995 52.93 64.845 51.625 61.155 51.625H25.38C8.46 51.625 0 43.21 0 26.38C0 9.46 8.46 1 25.38 1H86.4L80.46 12.88H28.35C24.66 12.88 21.465 14.185 18.765 16.795C16.155 19.405 14.85 22.6 14.85 26.38C14.85 30.07 16.155 33.22 18.765 35.83C21.465 38.44 24.66 39.745 28.35 39.745H64.125Z" fill="#9ECD16"/>
<path d="M192.867 43.4C196.9 46.92 198.917 51.3933 198.917 56.82V90.37H185.277V58.91C185.35 55.9033 184.287 53.3733 182.087 51.32C179.887 49.2667 177.283 48.3133 174.277 48.46H163.057C160.417 48.5333 158.18 49.5233 156.347 51.43C154.587 53.2633 153.743 55.5 153.817 58.14V90.37H140.067V58.91C140.213 55.9033 139.15 53.3733 136.877 51.32C134.677 49.2667 132.073 48.3133 129.067 48.46H124.007C119.607 48.5333 115.903 50.1467 112.897 53.3C109.89 56.4533 108.423 60.23 108.497 64.63V90.37H94.8567V48.46L108.607 37.57L108.717 46.92L110.807 43.84C111.907 41.9333 113.41 40.43 115.317 39.33C117.297 38.23 119.387 37.6433 121.587 37.57H133.137C139.077 37.2767 144.027 39.33 147.987 43.73L149.527 45.49L150.957 43.62C151.543 42.6667 152.203 41.8233 152.937 41.09C153.743 40.3567 154.587 39.7333 155.467 39.22C156.42 38.7067 157.41 38.3033 158.437 38.01C159.537 37.7167 160.637 37.57 161.737 37.57H178.457C184.103 37.4967 188.907 39.44 192.867 43.4Z" fill="#9ECD16"/>
<path d="M266.766 41.64C269.993 45.6733 271.349 50.22 270.836 55.28V90.37H256.976V83.66C251.183 88.06 244.693 90.2967 237.506 90.37H221.336C216.496 90.5167 212.316 88.8667 208.796 85.42C205.569 82.4133 203.956 78.71 203.956 74.31C203.883 69.7633 205.496 65.9133 208.796 62.76C212.169 59.02 216.386 57.0767 221.446 56.93H256.976V56.49C256.976 54.2167 256.133 52.31 254.446 50.77C252.686 49.01 250.596 48.1667 248.176 48.24H207.476L210.336 37.57H255.106C259.579 37.2767 263.466 38.6333 266.766 41.64ZM256.976 73.32V65.84H226.176C223.903 65.84 221.959 66.6467 220.346 68.26C218.806 69.8 218.036 71.67 218.036 73.87C218.036 75.9967 218.769 77.8667 220.236 79.48C221.996 81.0933 224.049 81.9 226.396 81.9H236.846C244.619 81.6067 251.329 78.7467 256.976 73.32Z" fill="#9ECD16"/>
<path d="M306.394 37.68H326.194L322.344 48.79H312.774C307.2 48.79 302.47 50.77 298.584 54.73C294.697 58.6167 292.754 63.31 292.754 68.81V90.48H278.454V37.68H292.974L292.864 47.03L295.064 43.95C296.31 42.0433 297.924 40.54 299.904 39.44C301.957 38.2667 304.12 37.68 306.394 37.68Z" fill="#9ECD16"/>
<path d="M354.329 91.47C350.955 91.47 347.875 90.92 345.089 89.82C342.375 88.6467 340.175 86.6667 338.489 83.88C336.875 81.0933 336.069 77.17 336.069 72.11V41.31H328.149V35.15L336.949 30.31L341.349 17.66H350.149V30.75H366.429V41.31H350.149V71.45C350.149 74.4567 350.845 76.6933 352.239 78.16C353.705 79.5533 355.649 80.25 358.069 80.25C359.682 80.25 361.259 80.1033 362.799 79.81C364.339 79.4433 365.732 79.0767 366.979 78.71V89.05C365.512 89.7833 363.679 90.37 361.479 90.81C359.352 91.25 356.969 91.47 354.329 91.47Z" fill="#9ECD16"/>
<path d="M751.244 77.4854C753.106 79.1325 756.49 79.9561 761.396 79.9561C766.695 79.9561 771.225 78.0941 774.984 74.3701C775.45 73.8688 776.399 72.7588 777.831 71.04L788.949 75.0146C786.228 78.7744 784.258 81.263 783.041 82.4805C777.061 88.4603 769.846 91.4502 761.396 91.4502C752.981 91.4502 745.784 88.4603 739.804 82.4805C733.824 76.5007 730.834 69.2855 730.834 60.835C730.834 52.3844 733.824 45.1693 739.804 39.1895C745.784 33.2096 752.981 30.2197 761.396 30.2197C768.629 30.2197 774.966 32.404 780.409 36.7725C781.304 37.5244 782.182 38.3301 783.041 39.1895C783.399 39.5475 784.42 40.6755 786.103 42.5732L780.517 48.2129L751.244 77.4854ZM769.828 43.1104C768.575 42.1436 765.764 41.6602 761.396 41.6602C756.132 41.6602 751.62 43.54 747.86 47.2998C744.136 51.0238 742.274 55.5355 742.274 60.835C742.274 65.1676 742.758 67.9785 743.725 69.2676L769.828 43.1104Z" fill="#FF4400"/>
<path d="M840.114 71.04L851.232 75.0146C848.511 78.7744 846.542 81.263 845.324 82.4805C839.344 88.4603 832.129 91.4502 823.679 91.4502C815.264 91.4502 808.067 88.4603 802.087 82.4805C796.107 76.5007 793.117 69.2855 793.117 60.835C793.117 52.3844 796.107 45.1693 802.087 39.1895C808.067 33.2096 815.264 30.2197 823.679 30.2197C832.129 30.2197 839.344 33.2096 845.324 39.1895C846.542 40.4069 848.511 42.8597 851.232 46.5479L840.114 50.6299C838.682 48.8753 837.715 47.7474 837.214 47.2461C833.49 43.5221 828.978 41.6602 823.679 41.6602C818.415 41.6602 813.903 43.54 810.144 47.2998C806.42 51.0238 804.558 55.5355 804.558 60.835C804.558 66.0986 806.42 70.6104 810.144 74.3701C813.903 78.0941 818.415 79.9561 823.679 79.9561C828.978 79.9561 833.508 78.0941 837.268 74.3701C837.733 73.8688 838.682 72.7588 840.114 71.04Z" fill="#FF4400"/>
<path d="M405.787 0.15625L434.93 50.5249L463.961 0.15625H474.574V90H462.95V25.0879L434.93 73.6035L406.798 25.0879V90H395.174V0.15625H405.787Z" fill="#0567E1"/>
<path d="M510.992 77.4854C512.854 79.1325 516.238 79.9561 521.144 79.9561C526.443 79.9561 530.973 78.0941 534.732 74.3701C535.198 73.8688 536.147 72.7588 537.579 71.04L548.697 75.0146C545.976 78.7744 544.007 81.263 542.789 82.4805C536.809 88.4603 529.594 91.4502 521.144 91.4502C512.729 91.4502 505.532 88.4603 499.552 82.4805C493.572 76.5007 490.582 69.2855 490.582 60.835C490.582 52.3844 493.572 45.1693 499.552 39.1895C505.532 33.2096 512.729 30.2197 521.144 30.2197C528.377 30.2197 534.715 32.404 540.157 36.7725C541.052 37.5244 541.93 38.3301 542.789 39.1895C543.147 39.5475 544.168 40.6755 545.851 42.5732L540.265 48.2129L510.992 77.4854ZM529.576 43.1104C528.323 42.1436 525.512 41.6602 521.144 41.6602C515.88 41.6602 511.368 43.54 507.608 47.2998C503.884 51.0238 502.022 55.5355 502.022 60.835C502.022 65.1676 502.506 67.9785 503.473 69.2676L529.576 43.1104Z" fill="#0567E1"/>
<path d="M581.911 91.1C578.538 91.1 575.458 90.55 572.671 89.45C569.958 88.2767 567.758 86.2967 566.071 83.51C564.458 80.7233 563.651 76.8 563.651 71.74V40.94H555.731V34.78L564.531 29.94L568.931 17.29H577.731V30.38H594.011V40.94H577.731V71.08C577.731 74.0867 578.428 76.3233 579.821 77.79C581.288 79.1833 583.231 79.88 585.651 79.88C587.265 79.88 588.841 79.7333 590.381 79.44C591.921 79.0733 593.315 78.7067 594.561 78.34V88.68C593.095 89.4133 591.261 90 589.061 90.44C586.935 90.88 584.551 91.1 581.911 91.1Z" fill="#0567E1"/>
<path d="M661.927 41.27C665.153 45.3033 666.51 49.85 665.997 54.91V90H652.137V83.29C646.343 87.69 639.853 89.9267 632.667 90H616.497C611.657 90.1467 607.477 88.4967 603.957 85.05C600.73 82.0433 599.117 78.34 599.117 73.94C599.043 69.3933 600.657 65.5433 603.957 62.39C607.33 58.65 611.547 56.7067 616.607 56.56H652.137V56.12C652.137 53.8467 651.293 51.94 649.607 50.4C647.847 48.64 645.757 47.7967 643.337 47.87H602.637L605.497 37.2H650.267C654.74 36.9067 658.627 38.2633 661.927 41.27ZM652.137 72.95V65.47H621.337C619.063 65.47 617.12 66.2767 615.507 67.89C613.967 69.43 613.197 71.3 613.197 73.5C613.197 75.6267 613.93 77.4967 615.397 79.11C617.157 80.7233 619.21 81.53 621.557 81.53H632.007C639.78 81.2367 646.49 78.3767 652.137 72.95Z" fill="#0567E1"/>
<path d="M655.515 0.62999H747.99L742.05 12.51H709.245V90.135H694.26V12.51H661.455L655.515 0.62999Z" fill="#FF4400"/>
</svg>
